# xmcd CD database file
#
# Track frame offsets:
#	150
#	15799
#	35632
#	57332
#	77650
#	94304
#	117283
#	136263
#	152400
#	167931
#	185160
#	202924
#	220189
#	236330
#
# Disc length: 3464 seconds
#
# Revision: 0
# Processed by: cddbd v1.5.2PL0 Copyright (c) Steve Scherf et al.
# Submitted via: CDex 1.84
#
DISCID=b30d860e
DTITLE=Travis Collins - Hard Light
DYEAR=2016
DGENRE=Country
TTITLE0=Just Another Girl
TTITLE1=Hometown Calling
TTITLE2=Shifting Sand
TTITLE3=Call Me Crazy
TTITLE4=Right Now
TTITLE5=Firework
TTITLE6=The Bottom Of It
TTITLE7=It Was Wheels
TTITLE8=What Happens On The Road
TTITLE9=Rattle My Cage
TTITLE10=The First Time
TTITLE11=High Wasted Genes
TTITLE12=Beer can
TTITLE13=Minefield
EXTD=YEAR: 2016
EXTT0=
EXTT1=
EXTT2=
EXTT3=
EXTT4=
EXTT5=
EXTT6=
EXTT7=
EXTT8=
EXTT9=
EXTT10=
EXTT11=
EXTT12=
EXTT13=
PLAYORDER=
